<?xml version="1.0" encoding="UTF-8"?>
<svg id="Calque_1" xmlns="http://www.w3.org/2000/svg" xmlns:xlink="http://www.w3.org/1999/xlink" viewBox="0 0 1024 548">
  <defs>
    <style>
      .cls-1 {
        fill: #ee3340;
      }

      .cls-2 {
        opacity: .97;
      }

      .cls-3 {
        fill: none;
      }

      .cls-4 {
        clip-path: url(#clippath-1);
      }

      .cls-5 {
        fill: #eef0f4;
      }

      .cls-6 {
        fill: #00a2df;
      }

      .cls-7 {
        fill: #ef3340;
      }

      .cls-8 {
        fill: #00a3e0;
      }

      .cls-9 {
        fill: #ccc;
      }

      .cls-10 {
        clip-path: url(#clippath);
      }
    </style>
    <clipPath id="clippath">
      <path class="cls-3" d="M713.18,359.58c.46-.63.91-1.28,1.39-1.91,3.71-4.83,8.22-8.61,13.58-11.26,2.83-1.4,5.79-2.33,8.88-2.9,2.61-.48,5.24-.58,7.86-.46,3.79.18,7.49.91,11.02,2.45,2.74,1.19,5.24,2.8,7.47,4.85,3.25,3,5.65,6.65,7.42,10.77,1.34,3.13,2.23,6.4,2.76,9.77.43,2.72.51,5.47.4,8.23-.11,2.69-.45,5.34-.97,7.97-.69,3.5-1.73,6.88-3.05,10.17-1.72,4.31-3.91,8.36-6.44,12.21-2.04,3.1-4.26,6.05-6.66,8.85-1.56,1.82-3.17,3.6-4.84,5.32-3.13,3.22-6.44,6.23-9.88,9.08-3.41,2.82-6.93,5.49-10.57,7.99-4.21,2.9-8.52,5.61-12.97,8.09-1.55.86-3.12,1.67-4.68,2.52-.5.27-.93.32-1.45.03-1.46-.81-2.95-1.55-4.41-2.36-3.16-1.75-6.25-3.63-9.28-5.6-4.46-2.9-8.78-6.01-12.95-9.35-2.57-2.06-5.06-4.22-7.48-6.46-.91-.84-1.77-1.73-2.67-2.58-1.06-1.02-2.09-2.09-3.09-3.17-4.74-5.12-9-10.63-12.47-16.78-2.92-5.19-5.16-10.68-6.49-16.55-.54-2.38-.91-4.78-1.12-7.22-.16-1.94-.27-3.88-.18-5.82.14-3.37.69-6.68,1.63-9.9,1.05-3.57,2.52-6.94,4.59-10.01,1.84-2.74,4.05-5.11,6.67-7.04,3.37-2.48,7.11-4.02,11.14-4.81,1.48-.29,2.96-.46,4.46-.57,1.49-.11,2.97-.12,4.45-.05,2.76.12,5.47.61,8.12,1.44,5.2,1.64,9.79,4.43,13.85,8.2,2.16,2.01,4.1,4.23,5.76,6.72.04.07.08.15.2.16Z"/>
    </clipPath>
    <clipPath id="clippath-1">
      <path class="cls-3" d="M712.82,359.67c-.46-.63-.91-1.28-1.39-1.91-3.71-4.83-8.22-8.61-13.58-11.26-2.83-1.4-5.79-2.33-8.88-2.9-2.61-.48-5.24-.58-7.86-.46-3.79.18-7.49.91-11.02,2.45-2.74,1.19-5.24,2.8-7.47,4.85-3.25,3-5.65,6.65-7.42,10.77-1.34,3.13-2.23,6.4-2.76,9.77-.43,2.72-.51,5.47-.4,8.23.11,2.69.45,5.34.97,7.97.69,3.5,1.73,6.88,3.05,10.17,1.72,4.31,3.91,8.36,6.44,12.21,2.04,3.1,4.26,6.05,6.66,8.85,1.56,1.82,3.17,3.6,4.84,5.32,3.13,3.22,6.44,6.23,9.88,9.08,3.41,2.82,6.93,5.49,10.57,7.99,4.21,2.9,8.52,5.61,12.97,8.09,1.55.86,3.12,1.67,4.68,2.52.5.27.93.32,1.45.03,1.46-.81,2.95-1.55,4.41-2.36,3.16-1.75,6.25-3.63,9.28-5.6,4.46-2.9,8.78-6.01,12.95-9.35,2.57-2.06,5.06-4.22,7.48-6.46.91-.84,1.77-1.73,2.67-2.58,1.06-1.02,2.09-2.09,3.09-3.17,4.74-5.12,9-10.63,12.47-16.78,2.92-5.19,5.16-10.68,6.49-16.55.54-2.38.91-4.78,1.12-7.22.16-1.94.27-3.88.18-5.82-.14-3.37-.69-6.68-1.63-9.9-1.05-3.57-2.52-6.94-4.59-10.01-1.84-2.74-4.05-5.11-6.67-7.04-3.37-2.48-7.11-4.02-11.14-4.81-1.48-.29-2.96-.46-4.46-.57-1.49-.11-2.97-.12-4.45-.05-2.76.12-5.47.61-8.12,1.44-5.2,1.64-9.79,4.43-13.85,8.2-2.16,2.01-4.1,4.23-5.76,6.72-.04.07-.08.15-.2.16Z"/>
    </clipPath>
  </defs>
  <g>
    <path class="cls-7" d="M71,42.74h55.22v191.91h72.39v48.82h-127.61V42.74Z"/>
    <path class="cls-7" d="M227.24,42.74h55.22v161.61c0,23.23,9.76,31.99,25.25,31.99s24.92-8.75,24.92-31.99V42.74h55.22v161.61c0,50.84-31.65,83.16-79.8,83.16s-80.81-32.32-80.81-83.16V42.74Z"/>
    <path class="cls-7" d="M479.42,163.95l-57.91-121.21h61.28l19.19,49.49c5.72,15.15,9.43,29.97,9.43,29.97h.34s3.7-14.48,10.1-29.97l19.53-49.49h60.61l-57.91,121.21,55.89,119.53h-59.59l-18.52-50.5c-6.06-15.49-9.76-28.96-9.76-28.96h-.67s-3.7,13.47-9.43,28.96l-18.86,50.5h-59.26l55.55-119.53Z"/>
  </g>
  <g>
    <path class="cls-9" d="M69,296.81h56.67c30.81,0,52.36,13.79,52.36,40.29,0,12.93-6.25,26.07-17.88,32.75v.43c17.67,5.39,24.13,21.11,24.13,34.69,0,33.61-28.01,45.89-58.61,45.89h-56.67v-154.06ZM126.1,356.5c9.48,0,13.57-6.89,13.57-14.22s-4.09-13.14-14.22-13.14h-18.75v27.36h19.39ZM129.33,418.55c10.99,0,16.37-7.54,16.37-16.16s-5.17-15.73-16.16-15.73h-22.84v31.89h22.62Z"/>
    <path class="cls-9" d="M204.95,461s6.03,4.09,11.42,4.09c6.03,0,14.01-1.72,17.88-11.2l2.16-5.17-47.19-108.81h42.23l16.37,51.06c1.94,6.03,4.09,17.24,4.09,17.24h.43s2.16-10.56,3.66-16.59l14.01-51.71h40.72l-45.46,122.82c-9.26,24.78-28.66,33.4-46.32,33.4-14.65,0-25.86-7.76-25.86-7.76l11.85-27.36Z"/>
    <path class="cls-8" d="M377.97,296.81h37.71v61.62h56.02v-61.62h37.71v154.06h-37.71v-60.33h-56.02v60.33h-37.71v-154.06Z"/>
    <path class="cls-8" d="M591.06,337.32c32.75,0,51.28,22.84,51.28,53.65,0,3.66-.86,11.63-.86,11.63h-70.03c2.8,13.57,14.01,19.82,25.85,19.82,15.95,0,30.6-11.2,30.6-11.2l13.79,26.07s-17.88,16.16-47.4,16.16c-39.65,0-60.98-28.66-60.98-58.18,0-32.53,21.98-57.96,57.75-57.96ZM604.85,381.28c0-8.4-5.82-15.94-14.65-15.94-10.77,0-15.95,7.76-17.88,15.94h32.53Z"/>
    <path class="cls-8" d="M783.24,339.91h35.77v18.75c0,3.66-.43,6.89-.43,6.89h.43c4.74-15.08,18.75-27.58,35.34-27.58,2.16,0,4.31.43,4.31.43v36.63s-3.02-.64-7.54-.64c-8.83,0-23.27,2.8-28.66,19.39-1.29,4.09-1.94,9.05-1.94,15.08v42.02h-37.28v-110.96Z"/>
    <path class="cls-8" d="M881.49,370.93h-14.22v-29.09h15.3v-31.89h36.2v31.89h23.27v29.09h-23.27v34.04c0,12.5,12.71,14.22,19.82,14.22,3.02,0,4.96-.22,4.96-.22v32.32s-4.09.65-10.13.65c-17.67,0-51.93-4.74-51.93-42.02v-39Z"/>
  </g>
  <g>
    <g class="cls-2">
      <g class="cls-10">
        <path class="cls-6" d="M713.22,415.17c-28.49,0-56.98,0-85.47,0-.34,0-.67-.02-1.01-.03,0,11.89,0,23.78-.02,35.67,0,.6.11.72.69.72,28.6,0,57.2-.01,85.8-.01v-36.34Z"/>
        <path class="cls-5" d="M713.22,379.1c-28.54,0-57.09,0-85.63,0-.28,0-.56,0-.84.01v36.02c.34.01.67.03,1.01.03,28.49,0,56.98,0,85.47,0v-36.07Z"/>
        <path class="cls-1" d="M713.22,342.91c-28.6,0-57.2,0-85.8-.01-.58,0-.69.12-.69.72.02,11.83.02,23.66.02,35.49.28,0,.56-.01.84-.01,28.54,0,57.09,0,85.63,0v-36.19Z"/>
      </g>
    </g>
    <g class="cls-2">
      <g class="cls-4">
        <path class="cls-6" d="M712.78,415.26c28.49,0,56.98,0,85.47,0,.34,0,.67-.02,1.01-.03,0,11.89,0,23.78.02,35.67,0,.6-.11.72-.69.72-28.6,0-57.2-.01-85.8-.01v-36.34Z"/>
        <path class="cls-5" d="M712.78,379.19c28.54,0,57.09,0,85.63,0,.28,0,.56,0,.84.01,0,12.01,0,24.01,0,36.02-.34.01-.67.03-1.01.03-28.49,0-56.98,0-85.47,0v-36.07Z"/>
        <path class="cls-1" d="M712.78,343c28.6,0,57.2,0,85.8-.01.58,0,.69.12.69.72-.02,11.83-.02,23.66-.02,35.49-.28,0-.56-.01-.84-.01-28.54,0-57.09,0-85.63,0v-36.19Z"/>
      </g>
    </g>
  </g>
</svg>